# xmcd
#
# Track frame offsets: 
#        150
#        26665
#        55277
#        77033
#        101191
#        120242
#        133758
#        152347
#        174039
#        197622
#        223000
#        242483
#        261720
#        288479
#        313243
#        335302
#
# Disc length: 4699 seconds
#
# Revision: 1
# Processed by: cddbd v1.5.2PL0 Copyright (c) Steve Scherf et al.
# Submitted via: ExactAudioCopyFreeDBPlugin 1.0
#
DISCID=e2125910
DTITLE=Various Artist - Philadelphia International Records:  The 40th
DTITLE=Anniversary Box Set
DYEAR=2012
DGENRE=Soul
TTITLE0=Dexter Wansel - Life on Mars
TTITLE1=Michael Pedicin, Jr. - Sonceré (The Infinite Hour Glass)
TTITLE2=Leon Huff - Tight Money
TTITLE3=Billy Paul - Compared to What
TTITLE4=Thad Jones and Mel Lewis - For the Love of Money
TTITLE5=M.F.S.B. - Something for Nothing
TTITLE6=Patti LaBelle - Lover Man (Oh Where Can You Be)
TTITLE7=M.F.S.B. - Manhattan Skyline
TTITLE8=Norman Harris - In Good Faith
TTITLE9=Monk Montgomery - Reality
TTITLE10=Phyllis Hyman - Forever with You
TTITLE11=The O'Jays - My Favorite Person
TTITLE12=Leon Huff - I Ain't Jivin', I'm Jammin'
TTITLE13=M.F.S.B. - Mysteries of the World
TTITLE14=Dexter Wansel - Theme from The Planets
TTITLE15=Billy Paul - Malorie
EXTD=
EXTT0=
EXTT1=
EXTT2=
EXTT3=
EXTT4=
EXTT5=
EXTT6=
EXTT7=
EXTT8=
EXTT9=
EXTT10=
EXTT11=
EXTT12=
EXTT13=
EXTT14=
EXTT15=
PLAYORDER=
